# xmcd
#
# Track frame offsets: 
#        183
#        13093
#        25438
#        39953
#        55570
#        71335
#        87948
#        100480
#        113145
#        124808
#        137535
#
# Disc length: 1978 seconds
#
# Revision: 4
# Processed by: cddbd v1.5.2PL0 Copyright (c) Steve Scherf et al.
# Submitted via: ExactAudioCopyFreeDBPlugin 1.0
#
DISCID=8a07b80b
DTITLE=William Bell - The Soul of a Bell
DYEAR=1967
DGENRE=Soul
TTITLE0=Everybody Loves a Winner
TTITLE1=You Don't Miss Your Water
TTITLE2=Do Right Woman - Do Right Man
TTITLE3=I've Been Loving You Too Long (To Stop Now)
TTITLE4=Nothing Takes the Place of You
TTITLE5=Then You Can Tell Me Goodbye
TTITLE6=Eloise (Hang on in There)
TTITLE7=Any Other Way
TTITLE8=It's Happening All Over
TTITLE9=Never Like This Before
TTITLE10=You're Such a Sweet Thang
EXTD=
EXTT0=
EXTT1=
EXTT2=
EXTT3=
EXTT4=
EXTT5=
EXTT6=
EXTT7=
EXTT8=
EXTT9=
EXTT10=
PLAYORDER=
